<svg width="1133" height="241" viewBox="0 0 1133 241" fill="none" xmlns="http://www.w3.org/2000/svg">
<path d="M0 80.9413C0 36.7586 35.8172 0.941406 80 0.941406H1052C1096.74 0.941406 1133 37.2063 1133 81.9414V240.399H0V80.9413Z" fill="#C4C4C4"/>
<path d="M591.917 113.75H575.083V98.5833C575.083 96.5721 574.197 94.6433 572.618 93.2211C571.04 91.799 568.899 91 566.667 91C564.434 91 562.294 91.799 560.715 93.2211C559.137 94.6433 558.25 96.5721 558.25 98.5833L558.549 113.75H541.417C539.184 113.75 537.044 114.549 535.465 115.971C533.887 117.393 533 119.322 533 121.333C533 123.345 533.887 125.273 535.465 126.696C537.044 128.118 539.184 128.917 541.417 128.917L558.549 128.647L558.25 144.083C558.25 146.095 559.137 148.023 560.715 149.446C562.294 150.868 564.434 151.667 566.667 151.667C568.899 151.667 571.04 150.868 572.618 149.446C574.197 148.023 575.083 146.095 575.083 144.083V128.647L591.917 128.917C594.149 128.917 596.29 128.118 597.868 126.696C599.447 125.273 600.333 123.345 600.333 121.333C600.333 119.322 599.447 117.393 597.868 115.971C596.29 114.549 594.149 113.75 591.917 113.75Z" fill="#979797"/>
</svg>
