<svg width="335" height="166" viewBox="0 0 335 166" fill="none" xmlns="http://www.w3.org/2000/svg">
<path d="M0 16.95C0 7.58877 7.58877 0 16.95 0H318.05C327.411 0 335 7.58877 335 16.95V166H0V16.95Z" fill="#C4C4C4"/>
<path d="M192.917 74.25H176.083V57.4167C176.083 55.1844 175.197 53.0436 173.618 51.4652C172.04 49.8868 169.899 49 167.667 49C165.434 49 163.294 49.8868 161.715 51.4652C160.137 53.0436 159.25 55.1844 159.25 57.4167L159.549 74.25H142.417C140.184 74.25 138.044 75.1368 136.465 76.7152C134.887 78.2936 134 80.4344 134 82.6667C134 84.8989 134.887 87.0397 136.465 88.6181C138.044 90.1966 140.184 91.0833 142.417 91.0833L159.549 90.7845L159.25 107.917C159.25 110.149 160.137 112.29 161.715 113.868C163.294 115.447 165.434 116.333 167.667 116.333C169.899 116.333 172.04 115.447 173.618 113.868C175.197 112.29 176.083 110.149 176.083 107.917V90.7845L192.917 91.0833C195.149 91.0833 197.29 90.1966 198.868 88.6181C200.447 87.0397 201.333 84.8989 201.333 82.6667C201.333 80.4344 200.447 78.2936 198.868 76.7152C197.29 75.1368 195.149 74.25 192.917 74.25Z" fill="#979797"/>
</svg>
