<svg width="35" height="35" viewBox="0 0 35 35" fill="none" xmlns="http://www.w3.org/2000/svg">
<path d="M27.9078 4.41895C28.6602 4.41895 29.3818 4.71783 29.9138 5.24984C30.4458 5.78185 30.7447 6.50341 30.7447 7.25578V27.1136C30.7447 27.866 30.4458 28.5876 29.9138 29.1196C29.3818 29.6516 28.6602 29.9505 27.9078 29.9505H8.04997C7.2976 29.9505 6.57604 29.6516 6.04403 29.1196C5.51201 28.5876 5.21313 27.866 5.21313 27.1136V7.25578C5.21313 6.50341 5.51201 5.78185 6.04403 5.24984C6.57604 4.71783 7.2976 4.41895 8.04997 4.41895H27.9078ZM27.1986 26.4044V18.8868C27.1986 17.6604 26.7115 16.4843 25.8443 15.6171C24.9771 14.7499 23.801 14.2628 22.5746 14.2628C21.3689 14.2628 19.9647 15.0004 19.2839 16.1067V14.5323H15.3265V26.4044H19.2839V19.4116C19.2839 18.3195 20.1633 17.4258 21.2555 17.4258C21.7821 17.4258 22.2872 17.6351 22.6596 18.0075C23.032 18.3799 23.2412 18.885 23.2412 19.4116V26.4044H27.1986ZM10.7166 12.3054C11.3486 12.3054 11.9547 12.0543 12.4016 11.6074C12.8485 11.1605 13.0995 10.5544 13.0995 9.92241C13.0995 8.60328 12.0357 7.52528 10.7166 7.52528C10.0808 7.52528 9.47112 7.77784 9.02157 8.22739C8.57203 8.67693 8.31947 9.28665 8.31947 9.92241C8.31947 11.2415 9.39747 12.3054 10.7166 12.3054ZM12.6882 26.4044V14.5323H8.75918V26.4044H12.6882Z" fill="#979797"/>
</svg>
