<svg width="34" height="34" viewBox="0 0 34 34" fill="none" xmlns="http://www.w3.org/2000/svg">
<path d="M11.4773 3.00684H23.0077C27.4002 3.00684 30.9691 6.57576 30.9691 10.9683V22.4987C30.9691 24.6102 30.1304 26.6352 28.6373 28.1283C27.1442 29.6213 25.1192 30.4601 23.0077 30.4601H11.4773C7.08479 30.4601 3.51587 26.8912 3.51587 22.4987V10.9683C3.51587 8.85678 4.35466 6.83175 5.84772 5.33869C7.34079 3.84563 9.36581 3.00684 11.4773 3.00684ZM11.2028 5.75216C9.89219 5.75216 8.63528 6.27279 7.70855 7.19952C6.78183 8.12625 6.2612 9.38316 6.2612 10.6938V22.7732C6.2612 25.5048 8.47118 27.7148 11.2028 27.7148H23.2822C24.5928 27.7148 25.8497 27.1942 26.7765 26.2674C27.7032 25.3407 28.2238 24.0838 28.2238 22.7732V10.6938C28.2238 7.96215 26.0138 5.75216 23.2822 5.75216H11.2028ZM24.449 7.81116C24.9041 7.81116 25.3405 7.99193 25.6623 8.31371C25.984 8.63549 26.1648 9.07192 26.1648 9.52699C26.1648 9.98205 25.984 10.4185 25.6623 10.7403C25.3405 11.062 24.9041 11.2428 24.449 11.2428C23.9939 11.2428 23.5575 11.062 23.2357 10.7403C22.9139 10.4185 22.7332 9.98205 22.7332 9.52699C22.7332 9.07192 22.9139 8.63549 23.2357 8.31371C23.5575 7.99193 23.9939 7.81116 24.449 7.81116ZM17.2425 9.87015C19.0628 9.87015 20.8085 10.5933 22.0956 11.8804C23.3827 13.1675 24.1058 14.9132 24.1058 16.7335C24.1058 18.5537 23.3827 20.2994 22.0956 21.5866C20.8085 22.8737 19.0628 23.5968 17.2425 23.5968C15.4222 23.5968 13.6765 22.8737 12.3894 21.5866C11.1023 20.2994 10.3792 18.5537 10.3792 16.7335C10.3792 14.9132 11.1023 13.1675 12.3894 11.8804C13.6765 10.5933 15.4222 9.87015 17.2425 9.87015ZM17.2425 12.6155C16.1503 12.6155 15.1029 13.0493 14.3306 13.8216C13.5584 14.5939 13.1245 15.6413 13.1245 16.7335C13.1245 17.8256 13.5584 18.8731 14.3306 19.6453C15.1029 20.4176 16.1503 20.8515 17.2425 20.8515C18.3347 20.8515 19.3821 20.4176 20.1544 19.6453C20.9266 18.8731 21.3605 17.8256 21.3605 16.7335C21.3605 15.6413 20.9266 14.5939 20.1544 13.8216C19.3821 13.0493 18.3347 12.6155 17.2425 12.6155Z" fill="#979797"/>
</svg>
