<svg width="36" height="37" viewBox="0 0 36 37" fill="none" xmlns="http://www.w3.org/2000/svg">
<path d="M11.5562 8.80078C12.4918 8.80078 13.3572 8.87399 14.1478 9.09069C14.9399 9.23564 15.5886 9.52555 16.164 9.8872C16.7409 10.2493 17.1728 10.7564 17.4598 11.4085C17.7482 12.06 17.8932 12.858 17.8932 13.7263C17.8932 14.7409 17.6765 15.6092 17.1728 16.2607C16.7409 16.9138 16.0205 17.4921 15.1566 17.927C16.3807 18.2901 17.3163 18.9417 17.8932 19.8099C18.4701 20.6782 18.8288 21.766 18.8288 22.9974C18.8288 24.0121 18.6121 24.8803 18.2519 25.6051C17.8932 26.3299 17.3163 26.9814 16.6677 27.4163C15.9628 27.8819 15.184 28.2245 14.3645 28.4295C13.5007 28.6477 12.6368 28.7926 11.7729 28.7926H2.12256V8.80078H11.5562ZM10.9793 16.9123C11.7715 16.9123 12.4201 16.6956 12.9238 16.334C13.4274 15.9723 13.6441 15.3193 13.6441 14.5228C13.6441 14.0879 13.5709 13.6531 13.4274 13.3646C13.284 13.0762 13.0673 12.8565 12.7803 12.6398C12.4869 12.475 12.1713 12.3533 11.8432 12.2782C11.483 12.205 11.1243 12.205 10.6909 12.205H6.51508V16.9138L10.9793 16.9123ZM11.196 25.4602C11.628 25.4602 12.0599 25.3869 12.4201 25.3152C12.7803 25.242 13.1405 25.0985 13.4274 24.8803C13.7197 24.6671 13.9649 24.396 14.1478 24.0838C14.2913 23.7222 14.4363 23.2873 14.4363 22.7807C14.4363 21.766 14.1478 21.0413 13.5724 20.5347C12.9955 20.0998 12.2034 19.8831 11.2678 19.8831H6.51508V25.4616L11.196 25.4602ZM25.094 25.3869C25.6699 25.9668 26.5338 26.2567 27.6856 26.2567C28.4777 26.2567 29.1981 26.04 29.7735 25.6783C30.3504 25.243 30.7106 24.8081 30.8541 24.3737H34.3827C33.8058 26.1117 32.942 27.3431 31.7911 28.1396C30.6374 28.8644 29.2698 29.2992 27.6138 29.2992C26.5545 29.3008 25.5041 29.1041 24.5171 28.7194C23.6285 28.388 22.8365 27.8405 22.2125 27.1264C21.5424 26.4607 21.0478 25.6392 20.7732 24.7354C20.413 23.7939 20.2681 22.7807 20.2681 21.6211C20.2681 20.5347 20.413 19.5215 20.7732 18.5785C21.1187 17.6702 21.6318 16.8348 22.2857 16.1158C22.9329 15.4642 23.725 14.8859 24.5889 14.5228C25.5505 14.1367 26.5776 13.9398 27.6138 13.943C28.8379 13.943 29.9184 14.1611 30.8541 14.6677C31.7911 15.1743 32.51 15.7541 33.0855 16.6239C33.6623 17.4204 34.0957 18.3618 34.3827 19.3765C34.5262 20.3897 34.5979 21.4044 34.5262 22.5626H24.0852C24.0852 23.7222 24.5171 24.8086 25.094 25.3884M29.63 17.7835C29.1263 17.2769 28.3342 16.987 27.3971 16.987C26.8477 16.9787 26.3043 17.1028 25.8129 17.3486C25.381 17.5668 25.094 17.8567 24.8055 18.1466C24.5388 18.4255 24.3632 18.7788 24.3019 19.1598C24.2287 19.5229 24.1569 19.8114 24.1569 20.1013H30.6374C30.4939 19.0149 30.1337 18.2916 29.63 17.7835ZM23.2931 10.1771H31.3577V12.1332H23.2945L23.2931 10.1771Z" fill="#979797"/>
</svg>
