<svg width="12" height="13" viewBox="0 0 12 13" fill="none" xmlns="http://www.w3.org/2000/svg">
<path fill-rule="evenodd" clip-rule="evenodd" d="M6.22171 0.61084C7.6582 0.61084 9.03585 1.18148 10.0516 2.19723C11.0674 3.21299 11.638 4.59064 11.638 6.02713C11.638 7.87709 10.6294 9.39125 9.56657 10.4775C9.03558 11.0144 8.45619 11.5011 7.83576 11.9315L7.57939 12.106L7.45903 12.1861L7.23215 12.3305L7.02994 12.4539L6.77959 12.5995C6.60966 12.6965 6.41737 12.7475 6.22171 12.7475C6.02605 12.7475 5.83376 12.6965 5.66383 12.5995L5.41348 12.4539L5.10054 12.2613L4.98499 12.1861L4.73825 12.0218C4.06893 11.5689 3.4455 11.0517 2.87685 10.4775C1.81405 9.39065 0.80542 7.87709 0.80542 6.02713C0.80542 4.59064 1.37606 3.21299 2.39181 2.19723C3.40757 1.18148 4.78522 0.61084 6.22171 0.61084ZM6.22171 1.81446C5.10444 1.81446 4.03293 2.25829 3.2429 3.04832C2.45287 3.83835 2.00904 4.90986 2.00904 6.02713C2.00904 7.42453 2.77454 8.65102 3.73684 9.63558C4.1506 10.0544 4.59782 10.4389 5.07406 10.785L5.34969 10.9812C5.43875 11.0434 5.52441 11.1012 5.60666 11.1546L5.84137 11.305L6.04779 11.4308L6.22171 11.5325L6.49553 11.3706L6.7164 11.2322C6.83395 11.1576 6.95973 11.0739 7.09373 10.9812L7.36936 10.785C7.8456 10.4389 8.29282 10.0544 8.70658 9.63558C9.66888 8.65162 10.4344 7.42453 10.4344 6.02713C10.4344 4.90986 9.99055 3.83835 9.20052 3.04832C8.41049 2.25829 7.33898 1.81446 6.22171 1.81446ZM6.22171 3.61989C6.86015 3.61989 7.47244 3.87351 7.92389 4.32495C8.37533 4.7764 8.62895 5.38869 8.62895 6.02713C8.62895 6.66557 8.37533 7.27786 7.92389 7.72931C7.47244 8.18075 6.86015 8.43437 6.22171 8.43437C5.58327 8.43437 4.97098 8.18075 4.51953 7.72931C4.06809 7.27786 3.81447 6.66557 3.81447 6.02713C3.81447 5.38869 4.06809 4.7764 4.51953 4.32495C4.97098 3.87351 5.58327 3.61989 6.22171 3.61989ZM6.22171 4.82351C5.90249 4.82351 5.59634 4.95032 5.37062 5.17604C5.1449 5.40176 5.01809 5.70791 5.01809 6.02713C5.01809 6.34635 5.1449 6.65249 5.37062 6.87822C5.59634 7.10394 5.90249 7.23075 6.22171 7.23075C6.54093 7.23075 6.84707 7.10394 7.0728 6.87822C7.29852 6.65249 7.42533 6.34635 7.42533 6.02713C7.42533 5.70791 7.29852 5.40176 7.0728 5.17604C6.84707 4.95032 6.54093 4.82351 6.22171 4.82351Z" fill="#979797"/>
</svg>
