<svg width="6" height="6" viewBox="0 0 6 6" fill="none" xmlns="http://www.w3.org/2000/svg">
<path d="M0.941404 0.210406L3.00007 2.26907L5.04807 0.221073C5.09331 0.172922 5.1478 0.134403 5.20829 0.107826C5.26878 0.0812488 5.33401 0.0671606 5.40007 0.0664062C5.54152 0.0664063 5.67718 0.122597 5.77719 0.222616C5.87721 0.322635 5.9334 0.458291 5.9334 0.59974C5.93465 0.665127 5.92252 0.730079 5.89775 0.79061C5.87299 0.85114 5.83612 0.905972 5.7894 0.95174L3.71474 2.99974L5.7894 5.07441C5.87731 5.1604 5.92885 5.27685 5.9334 5.39974C5.9334 5.54119 5.87721 5.67684 5.77719 5.77686C5.67718 5.87688 5.54152 5.93307 5.40007 5.93307C5.3321 5.93589 5.26429 5.92455 5.20093 5.89976C5.13758 5.87497 5.08008 5.83728 5.03207 5.78907L3.00007 3.73041L0.946737 5.78374C0.901674 5.83029 0.847838 5.86745 0.788338 5.89308C0.728838 5.91871 0.664852 5.9323 0.600071 5.93307C0.458622 5.93307 0.322966 5.87688 0.222947 5.77686C0.122927 5.67684 0.0667372 5.54119 0.0667372 5.39974C0.0654937 5.33435 0.0776254 5.2694 0.102388 5.20887C0.12715 5.14834 0.164021 5.09351 0.210737 5.04774L2.2854 2.99974L0.210737 0.925073C0.122836 0.839078 0.0712916 0.722626 0.0667372 0.59974C0.0667372 0.458291 0.122927 0.322635 0.222947 0.222616C0.322966 0.122597 0.458622 0.0664063 0.600071 0.0664062C0.728071 0.0680063 0.850737 0.11974 0.941404 0.210406Z" fill="#979797"/>
</svg>
