<svg width="22" height="22" viewBox="0 0 22 22" fill="none" xmlns="http://www.w3.org/2000/svg">
<path fill-rule="evenodd" clip-rule="evenodd" d="M14.6156 9.54499C15.1822 8.14528 13.8063 6.74555 12.4303 7.32191L9.86963 8.39452C9.22097 8.66623 8.70586 9.19024 8.43877 9.8501L7.38437 12.455C6.81781 13.8547 8.19375 15.2544 9.5697 14.6781L12.1304 13.6055C12.779 13.3338 13.2941 12.8098 13.5612 12.1499L14.6156 9.54499ZM12.9766 8.67164C13.1732 8.5893 13.3698 8.78926 13.2888 8.98922L12.2344 11.5941C12.113 11.8941 11.8789 12.1323 11.584 12.2558L9.02336 13.3284C8.82681 13.4107 8.63024 13.2107 8.71118 13.0108L9.76557 10.4059C9.88698 10.1059 10.1211 9.86775 10.416 9.74424L12.9766 8.67164Z" fill="#00AA5B"/>
<path fill-rule="evenodd" clip-rule="evenodd" d="M13.9336 1.06995C13.164 0.999989 12.2235 0.999994 11.0337 1H10.9663C9.77649 0.999994 8.83602 0.999989 8.06637 1.06995C7.27579 1.14181 6.61455 1.29074 5.98959 1.61687C5.82771 1.70136 5.67004 1.79396 5.51717 1.89434C4.92705 2.28184 4.46964 2.78993 4.01318 3.45049C3.5688 4.09356 3.09856 4.9221 2.50366 5.97032L2.46997 6.02968C1.87506 7.07789 1.40482 7.90643 1.07955 8.61946C0.745436 9.35188 0.541596 10.0089 0.506767 10.7225C0.497744 10.9074 0.497744 11.0926 0.506767 11.2775C0.541596 11.9911 0.745436 12.6481 1.07955 13.3805C1.40481 14.0936 1.87505 14.9221 2.46995 15.9703L2.50364 16.0297C3.09855 17.0779 3.56879 17.9064 4.01318 18.5495C4.46964 19.2101 4.92705 19.7182 5.51717 20.1057C5.67004 20.206 5.8277 20.2986 5.98959 20.3831C6.61454 20.7093 7.27579 20.8582 8.06637 20.9301C8.83601 21 9.77646 21 10.9663 21H11.0337C12.2235 21 13.164 21 13.9336 20.9301C14.7242 20.8582 15.3855 20.7093 16.0104 20.3831C16.1723 20.2986 16.33 20.206 16.4828 20.1057C17.0729 19.7182 17.5304 19.2101 17.9868 18.5495C18.4312 17.9065 18.9014 17.0779 19.4963 16.0297L19.53 15.9703C20.1249 14.9221 20.5952 14.0936 20.9205 13.3805C21.2546 12.6481 21.4584 11.9911 21.4932 11.2775C21.5023 11.0926 21.5023 10.9074 21.4932 10.7225C21.4584 10.0089 21.2546 9.35188 20.9205 8.61946C20.5952 7.90643 20.1249 7.07788 19.53 6.02966L19.4963 5.97026C18.9014 4.92207 18.4312 4.09355 17.9868 3.45049C17.5304 2.78993 17.0729 2.28184 16.4828 1.89434C16.33 1.79396 16.1723 1.70136 16.0104 1.61687C15.3855 1.29074 14.7242 1.14181 13.9336 1.06995ZM6.64453 2.91562C7.04746 2.70535 7.50934 2.58607 8.19408 2.52383C8.8925 2.46034 9.76907 2.45967 11 2.45967C12.2309 2.45967 13.1075 2.46034 13.8059 2.52383C14.4907 2.58607 14.9525 2.70535 15.3555 2.91562C15.4751 2.97807 15.5917 3.04651 15.7046 3.1207C16.0851 3.37054 16.4176 3.71781 16.813 4.28993C17.2162 4.8735 17.6551 5.64541 18.2705 6.72984C18.886 7.81427 19.3237 8.58685 19.6189 9.23389C19.9083 9.86826 20.0377 10.3348 20.0601 10.7949C20.0668 10.9316 20.0668 11.0684 20.0601 11.2051C20.0377 11.6652 19.9083 12.1317 19.6189 12.7661C19.3237 13.4132 18.886 14.1857 18.2705 15.2702C17.6551 16.3546 17.2162 17.1265 16.813 17.7101C16.4176 18.2822 16.0851 18.6295 15.7046 18.8793C15.5917 18.9535 15.4751 19.0219 15.3555 19.0844C14.9525 19.2947 14.4907 19.4139 13.8059 19.4762C13.1075 19.5397 12.2309 19.5403 11 19.5403C9.76907 19.5403 8.8925 19.5397 8.19408 19.4762C7.50933 19.4139 7.04746 19.2947 6.64453 19.0844C6.52488 19.0219 6.40834 18.9535 6.29535 18.8793C5.91488 18.6295 5.5824 18.2822 5.18704 17.7101C4.78378 17.1265 4.34492 16.3546 3.72946 15.2702C3.114 14.1857 2.67628 13.4132 2.38112 12.7661C2.09173 12.1317 1.96234 11.6652 1.93989 11.2051C1.93322 11.0684 1.93322 10.9316 1.93989 10.7949C1.96234 10.3348 2.09173 9.86826 2.38112 9.23389C2.67628 8.58685 3.114 7.81427 3.72946 6.72984C4.34492 5.64541 4.78378 4.87349 5.18704 4.28993C5.5824 3.71781 5.91488 3.37054 6.29535 3.1207C6.40834 3.04651 6.52488 2.97807 6.64453 2.91562Z" fill="#00AA5B"/>
<path fill-rule="evenodd" clip-rule="evenodd" d="M14.6156 9.54499C15.1822 8.14528 13.8063 6.74555 12.4303 7.32191L9.86963 8.39452C9.22097 8.66623 8.70586 9.19024 8.43877 9.8501L7.38437 12.455C6.81781 13.8547 8.19375 15.2544 9.5697 14.6781L12.1304 13.6055C12.779 13.3338 13.2941 12.8098 13.5612 12.1499L14.6156 9.54499ZM12.9766 8.67164C13.1732 8.5893 13.3698 8.78926 13.2888 8.98922L12.2344 11.5941C12.113 11.8941 11.8789 12.1323 11.584 12.2558L9.02336 13.3284C8.82681 13.4107 8.63024 13.2107 8.71118 13.0108L9.76557 10.4059C9.88698 10.1059 10.1211 9.86775 10.416 9.74424L12.9766 8.67164Z" stroke="#00AA5B"/>
<path fill-rule="evenodd" clip-rule="evenodd" d="M13.9336 1.06995C13.164 0.999989 12.2235 0.999994 11.0337 1H10.9663C9.77649 0.999994 8.83602 0.999989 8.06637 1.06995C7.27579 1.14181 6.61455 1.29074 5.98959 1.61687C5.82771 1.70136 5.67004 1.79396 5.51717 1.89434C4.92705 2.28184 4.46964 2.78993 4.01318 3.45049C3.5688 4.09356 3.09856 4.9221 2.50366 5.97032L2.46997 6.02968C1.87506 7.07789 1.40482 7.90643 1.07955 8.61946C0.745436 9.35188 0.541596 10.0089 0.506767 10.7225C0.497744 10.9074 0.497744 11.0926 0.506767 11.2775C0.541596 11.9911 0.745436 12.6481 1.07955 13.3805C1.40481 14.0936 1.87505 14.9221 2.46995 15.9703L2.50364 16.0297C3.09855 17.0779 3.56879 17.9064 4.01318 18.5495C4.46964 19.2101 4.92705 19.7182 5.51717 20.1057C5.67004 20.206 5.8277 20.2986 5.98959 20.3831C6.61454 20.7093 7.27579 20.8582 8.06637 20.9301C8.83601 21 9.77646 21 10.9663 21H11.0337C12.2235 21 13.164 21 13.9336 20.9301C14.7242 20.8582 15.3855 20.7093 16.0104 20.3831C16.1723 20.2986 16.33 20.206 16.4828 20.1057C17.0729 19.7182 17.5304 19.2101 17.9868 18.5495C18.4312 17.9065 18.9014 17.0779 19.4963 16.0297L19.53 15.9703C20.1249 14.9221 20.5952 14.0936 20.9205 13.3805C21.2546 12.6481 21.4584 11.9911 21.4932 11.2775C21.5023 11.0926 21.5023 10.9074 21.4932 10.7225C21.4584 10.0089 21.2546 9.35188 20.9205 8.61946C20.5952 7.90643 20.1249 7.07788 19.53 6.02966L19.4963 5.97026C18.9014 4.92207 18.4312 4.09355 17.9868 3.45049C17.5304 2.78993 17.0729 2.28184 16.4828 1.89434C16.33 1.79396 16.1723 1.70136 16.0104 1.61687C15.3855 1.29074 14.7242 1.14181 13.9336 1.06995ZM6.64453 2.91562C7.04746 2.70535 7.50934 2.58607 8.19408 2.52383C8.8925 2.46034 9.76907 2.45967 11 2.45967C12.2309 2.45967 13.1075 2.46034 13.8059 2.52383C14.4907 2.58607 14.9525 2.70535 15.3555 2.91562C15.4751 2.97807 15.5917 3.04651 15.7046 3.1207C16.0851 3.37054 16.4176 3.71781 16.813 4.28993C17.2162 4.8735 17.6551 5.64541 18.2705 6.72984C18.886 7.81427 19.3237 8.58685 19.6189 9.23389C19.9083 9.86826 20.0377 10.3348 20.0601 10.7949C20.0668 10.9316 20.0668 11.0684 20.0601 11.2051C20.0377 11.6652 19.9083 12.1317 19.6189 12.7661C19.3237 13.4132 18.886 14.1857 18.2705 15.2702C17.6551 16.3546 17.2162 17.1265 16.813 17.7101C16.4176 18.2822 16.0851 18.6295 15.7046 18.8793C15.5917 18.9535 15.4751 19.0219 15.3555 19.0844C14.9525 19.2947 14.4907 19.4139 13.8059 19.4762C13.1075 19.5397 12.2309 19.5403 11 19.5403C9.76907 19.5403 8.8925 19.5397 8.19408 19.4762C7.50933 19.4139 7.04746 19.2947 6.64453 19.0844C6.52488 19.0219 6.40834 18.9535 6.29535 18.8793C5.91488 18.6295 5.5824 18.2822 5.18704 17.7101C4.78378 17.1265 4.34492 16.3546 3.72946 15.2702C3.114 14.1857 2.67628 13.4132 2.38112 12.7661C2.09173 12.1317 1.96234 11.6652 1.93989 11.2051C1.93322 11.0684 1.93322 10.9316 1.93989 10.7949C1.96234 10.3348 2.09173 9.86826 2.38112 9.23389C2.67628 8.58685 3.114 7.81427 3.72946 6.72984C4.34492 5.64541 4.78378 4.87349 5.18704 4.28993C5.5824 3.71781 5.91488 3.37054 6.29535 3.1207C6.40834 3.04651 6.52488 2.97807 6.64453 2.91562Z" stroke="#00AA5B"/>
</svg>
